<mxfile host="Electron" modified="2023-08-14T21:08:16.325Z" agent="Mozilla/5.0 (Windows NT 10.0; Win64; x64) AppleWebKit/537.36 (KHTML, like Gecko) draw.io/21.4.0 Chrome/112.0.5615.204 Electron/24.5.1 Safari/537.36" etag="iao7TYzEvb6ANLypj6bJ" version="21.4.0" type="device">
  <diagram name="Страница 1" id="PvHwtlqAQT6B7YscqX9X">
    <mxGraphModel dx="3124" dy="1834" grid="1" gridSize="10" guides="1" tooltips="1" connect="1" arrows="1" fold="1" page="1" pageScale="1" pageWidth="2336" pageHeight="1654" math="0" shadow="0">
      <root>
        <mxCell id="0" />
        <mxCell id="1" parent="0" />
        <mxCell id="hDT_LqE07yz6vbRcyDex-26" value="" style="rounded=0;whiteSpace=wrap;html=1;strokeColor=#007FFF;fillColor=none;dashed=1;strokeWidth=2;" vertex="1" parent="1">
          <mxGeometry x="520" y="270" width="640" height="860" as="geometry" />
        </mxCell>
        <mxCell id="hDT_LqE07yz6vbRcyDex-166" value="" style="rounded=0;whiteSpace=wrap;html=1;fontFamily=Helvetica;fontSize=14;fontColor=default;fillColor=none;gradientColor=none;strokeWidth=4;dashed=1;strokeColor=#97D077;" vertex="1" parent="1">
          <mxGeometry x="170" y="200" width="1500" height="980" as="geometry" />
        </mxCell>
        <mxCell id="hDT_LqE07yz6vbRcyDex-93" value="" style="rounded=0;whiteSpace=wrap;html=1;strokeColor=#007FFF;fillColor=none;dashed=1;strokeWidth=2;" vertex="1" parent="1">
          <mxGeometry x="1220" y="550" width="420" height="300" as="geometry" />
        </mxCell>
        <mxCell id="hDT_LqE07yz6vbRcyDex-151" value="" style="rounded=0;whiteSpace=wrap;html=1;strokeColor=#007FFF;fillColor=none;dashed=1;strokeWidth=2;" vertex="1" parent="1">
          <mxGeometry x="1760" y="350" width="440" height="630" as="geometry" />
        </mxCell>
        <mxCell id="hDT_LqE07yz6vbRcyDex-1" value="Микроконтроллер&lt;br style=&quot;font-size: 18px;&quot;&gt;STM32F405VGT6" style="rounded=0;whiteSpace=wrap;html=1;fontSize=18;" vertex="1" parent="1">
          <mxGeometry x="750" y="510" width="200" height="440" as="geometry" />
        </mxCell>
        <mxCell id="hDT_LqE07yz6vbRcyDex-27" value="КПУ" style="text;html=1;strokeColor=none;fillColor=none;align=center;verticalAlign=middle;whiteSpace=wrap;rounded=0;fontSize=26;fontColor=#007FFF;fontStyle=0" vertex="1" parent="1">
          <mxGeometry x="520" y="230" width="280" height="40" as="geometry" />
        </mxCell>
        <mxCell id="hDT_LqE07yz6vbRcyDex-29" value="" style="endArrow=none;html=1;rounded=0;exitX=1;exitY=0.5;exitDx=0;exitDy=0;" edge="1" parent="1" source="hDT_LqE07yz6vbRcyDex-5">
          <mxGeometry width="50" height="50" relative="1" as="geometry">
            <mxPoint x="540" y="600" as="sourcePoint" />
            <mxPoint x="550" y="580" as="targetPoint" />
          </mxGeometry>
        </mxCell>
        <mxCell id="hDT_LqE07yz6vbRcyDex-30" value="" style="endArrow=none;html=1;rounded=0;entryX=1;entryY=0.5;entryDx=0;entryDy=0;" edge="1" parent="1" target="hDT_LqE07yz6vbRcyDex-6">
          <mxGeometry width="50" height="50" relative="1" as="geometry">
            <mxPoint x="560" y="660" as="sourcePoint" />
            <mxPoint x="570" y="540" as="targetPoint" />
          </mxGeometry>
        </mxCell>
        <mxCell id="hDT_LqE07yz6vbRcyDex-31" value="" style="endArrow=none;html=1;rounded=0;exitX=1;exitY=0.5;exitDx=0;exitDy=0;" edge="1" parent="1" source="hDT_LqE07yz6vbRcyDex-4">
          <mxGeometry width="50" height="50" relative="1" as="geometry">
            <mxPoint x="510" y="560" as="sourcePoint" />
            <mxPoint x="550" y="500" as="targetPoint" />
          </mxGeometry>
        </mxCell>
        <mxCell id="hDT_LqE07yz6vbRcyDex-32" value="" style="endArrow=none;html=1;rounded=0;exitX=1;exitY=0.5;exitDx=0;exitDy=0;" edge="1" parent="1" source="hDT_LqE07yz6vbRcyDex-3">
          <mxGeometry width="50" height="50" relative="1" as="geometry">
            <mxPoint x="510" y="560" as="sourcePoint" />
            <mxPoint x="550" y="420" as="targetPoint" />
          </mxGeometry>
        </mxCell>
        <mxCell id="hDT_LqE07yz6vbRcyDex-33" value="" style="endArrow=none;html=1;rounded=0;" edge="1" parent="1">
          <mxGeometry width="50" height="50" relative="1" as="geometry">
            <mxPoint x="550" y="660" as="sourcePoint" />
            <mxPoint x="550" y="420" as="targetPoint" />
          </mxGeometry>
        </mxCell>
        <mxCell id="hDT_LqE07yz6vbRcyDex-34" value="" style="endArrow=classic;html=1;rounded=0;entryX=0;entryY=0.341;entryDx=0;entryDy=0;entryPerimeter=0;" edge="1" parent="1" target="hDT_LqE07yz6vbRcyDex-1">
          <mxGeometry width="50" height="50" relative="1" as="geometry">
            <mxPoint x="560" y="660" as="sourcePoint" />
            <mxPoint x="610" y="660" as="targetPoint" />
          </mxGeometry>
        </mxCell>
        <mxCell id="hDT_LqE07yz6vbRcyDex-35" value="" style="endArrow=classic;html=1;rounded=0;exitX=1;exitY=0.5;exitDx=0;exitDy=0;entryX=0;entryY=0.523;entryDx=0;entryDy=0;entryPerimeter=0;" edge="1" parent="1" source="hDT_LqE07yz6vbRcyDex-7" target="hDT_LqE07yz6vbRcyDex-1">
          <mxGeometry width="50" height="50" relative="1" as="geometry">
            <mxPoint x="580" y="710" as="sourcePoint" />
            <mxPoint x="630" y="660" as="targetPoint" />
          </mxGeometry>
        </mxCell>
        <mxCell id="hDT_LqE07yz6vbRcyDex-40" value="" style="endArrow=classic;html=1;rounded=0;exitX=1;exitY=0.5;exitDx=0;exitDy=0;entryX=0;entryY=0.705;entryDx=0;entryDy=0;entryPerimeter=0;" edge="1" parent="1" source="hDT_LqE07yz6vbRcyDex-9" target="hDT_LqE07yz6vbRcyDex-1">
          <mxGeometry width="50" height="50" relative="1" as="geometry">
            <mxPoint x="590" y="810" as="sourcePoint" />
            <mxPoint x="710" y="820" as="targetPoint" />
          </mxGeometry>
        </mxCell>
        <mxCell id="hDT_LqE07yz6vbRcyDex-41" value="3.3В" style="text;html=1;strokeColor=none;fillColor=none;align=center;verticalAlign=middle;whiteSpace=wrap;rounded=0;fontSize=14;" vertex="1" parent="1">
          <mxGeometry x="680" y="800" width="40" height="20" as="geometry" />
        </mxCell>
        <mxCell id="hDT_LqE07yz6vbRcyDex-42" value="" style="endArrow=none;html=1;rounded=0;entryX=1;entryY=0.5;entryDx=0;entryDy=0;exitX=0;exitY=0.886;exitDx=0;exitDy=0;exitPerimeter=0;endFill=0;" edge="1" parent="1" source="hDT_LqE07yz6vbRcyDex-1" target="hDT_LqE07yz6vbRcyDex-43">
          <mxGeometry width="50" height="50" relative="1" as="geometry">
            <mxPoint x="730" y="900" as="sourcePoint" />
            <mxPoint x="660" y="900" as="targetPoint" />
          </mxGeometry>
        </mxCell>
        <mxCell id="hDT_LqE07yz6vbRcyDex-43" value="Оптореле" style="rounded=0;whiteSpace=wrap;html=1;" vertex="1" parent="1">
          <mxGeometry x="600" y="880" width="80" height="40" as="geometry" />
        </mxCell>
        <mxCell id="hDT_LqE07yz6vbRcyDex-45" value="" style="endArrow=classic;html=1;rounded=0;exitX=0;exitY=0.5;exitDx=0;exitDy=0;entryX=1;entryY=0.5;entryDx=0;entryDy=0;" edge="1" parent="1" source="hDT_LqE07yz6vbRcyDex-43" target="hDT_LqE07yz6vbRcyDex-10">
          <mxGeometry width="50" height="50" relative="1" as="geometry">
            <mxPoint x="420" y="840" as="sourcePoint" />
            <mxPoint x="470" y="790" as="targetPoint" />
          </mxGeometry>
        </mxCell>
        <mxCell id="hDT_LqE07yz6vbRcyDex-46" value="24В" style="text;html=1;strokeColor=none;fillColor=none;align=center;verticalAlign=middle;whiteSpace=wrap;rounded=0;fontSize=14;" vertex="1" parent="1">
          <mxGeometry x="560" y="880" width="40" height="20" as="geometry" />
        </mxCell>
        <mxCell id="hDT_LqE07yz6vbRcyDex-47" value="3.3В" style="text;html=1;strokeColor=none;fillColor=none;align=center;verticalAlign=middle;whiteSpace=wrap;rounded=0;fontSize=14;" vertex="1" parent="1">
          <mxGeometry x="680" y="720" width="40" height="20" as="geometry" />
        </mxCell>
        <mxCell id="hDT_LqE07yz6vbRcyDex-48" value="3.3В" style="text;html=1;strokeColor=none;fillColor=none;align=center;verticalAlign=middle;whiteSpace=wrap;rounded=0;fontSize=14;" vertex="1" parent="1">
          <mxGeometry x="690" y="640" width="40" height="20" as="geometry" />
        </mxCell>
        <mxCell id="hDT_LqE07yz6vbRcyDex-49" value="3.3В" style="text;html=1;strokeColor=none;fillColor=none;align=center;verticalAlign=middle;whiteSpace=wrap;rounded=0;fontSize=14;" vertex="1" parent="1">
          <mxGeometry x="680" y="880" width="40" height="20" as="geometry" />
        </mxCell>
        <mxCell id="hDT_LqE07yz6vbRcyDex-50" value="" style="endArrow=classic;html=1;rounded=0;exitX=1;exitY=0.5;exitDx=0;exitDy=0;entryX=0.25;entryY=1;entryDx=0;entryDy=0;" edge="1" parent="1" source="hDT_LqE07yz6vbRcyDex-12" target="hDT_LqE07yz6vbRcyDex-1">
          <mxGeometry width="50" height="50" relative="1" as="geometry">
            <mxPoint x="580" y="1040" as="sourcePoint" />
            <mxPoint x="770" y="950" as="targetPoint" />
            <Array as="points">
              <mxPoint x="800" y="980" />
            </Array>
          </mxGeometry>
        </mxCell>
        <mxCell id="hDT_LqE07yz6vbRcyDex-51" value="3.3В" style="text;html=1;strokeColor=none;fillColor=none;align=center;verticalAlign=middle;whiteSpace=wrap;rounded=0;fontSize=14;" vertex="1" parent="1">
          <mxGeometry x="680" y="960" width="40" height="20" as="geometry" />
        </mxCell>
        <mxCell id="hDT_LqE07yz6vbRcyDex-52" value="Оптроны" style="rounded=0;whiteSpace=wrap;html=1;" vertex="1" parent="1">
          <mxGeometry x="600" y="800" width="80" height="40" as="geometry" />
        </mxCell>
        <mxCell id="hDT_LqE07yz6vbRcyDex-53" value="Оптроны" style="rounded=0;whiteSpace=wrap;html=1;" vertex="1" parent="1">
          <mxGeometry x="600" y="720" width="80" height="40" as="geometry" />
        </mxCell>
        <mxCell id="hDT_LqE07yz6vbRcyDex-54" value="Оптроны" style="rounded=0;whiteSpace=wrap;html=1;" vertex="1" parent="1">
          <mxGeometry x="600" y="640" width="80" height="40" as="geometry" />
        </mxCell>
        <mxCell id="hDT_LqE07yz6vbRcyDex-55" value="Оптроны" style="rounded=0;whiteSpace=wrap;html=1;" vertex="1" parent="1">
          <mxGeometry x="600" y="960" width="80" height="40" as="geometry" />
        </mxCell>
        <mxCell id="hDT_LqE07yz6vbRcyDex-56" value="5.0В" style="text;html=1;strokeColor=none;fillColor=none;align=center;verticalAlign=middle;whiteSpace=wrap;rounded=0;fontSize=14;" vertex="1" parent="1">
          <mxGeometry x="560" y="960" width="40" height="20" as="geometry" />
        </mxCell>
        <mxCell id="hDT_LqE07yz6vbRcyDex-57" value="USB" style="text;html=1;strokeColor=none;fillColor=none;align=center;verticalAlign=middle;whiteSpace=wrap;rounded=0;fontSize=14;" vertex="1" parent="1">
          <mxGeometry x="800" y="1040" width="40" height="20" as="geometry" />
        </mxCell>
        <mxCell id="hDT_LqE07yz6vbRcyDex-59" value="5.0В" style="text;html=1;strokeColor=none;fillColor=none;align=center;verticalAlign=middle;whiteSpace=wrap;rounded=0;fontSize=14;" vertex="1" parent="1">
          <mxGeometry x="560" y="640" width="40" height="20" as="geometry" />
        </mxCell>
        <mxCell id="hDT_LqE07yz6vbRcyDex-60" value="5.0В" style="text;html=1;strokeColor=none;fillColor=none;align=center;verticalAlign=middle;whiteSpace=wrap;rounded=0;fontSize=14;" vertex="1" parent="1">
          <mxGeometry x="560" y="800" width="40" height="20" as="geometry" />
        </mxCell>
        <mxCell id="hDT_LqE07yz6vbRcyDex-62" value="5.0В" style="text;html=1;strokeColor=none;fillColor=none;align=center;verticalAlign=middle;whiteSpace=wrap;rounded=0;fontSize=14;" vertex="1" parent="1">
          <mxGeometry x="560" y="720" width="40" height="20" as="geometry" />
        </mxCell>
        <mxCell id="hDT_LqE07yz6vbRcyDex-65" value="" style="endArrow=classic;html=1;rounded=0;entryX=0.5;entryY=1;entryDx=0;entryDy=0;exitX=1;exitY=0.5;exitDx=0;exitDy=0;" edge="1" parent="1" source="hDT_LqE07yz6vbRcyDex-11" target="hDT_LqE07yz6vbRcyDex-1">
          <mxGeometry width="50" height="50" relative="1" as="geometry">
            <mxPoint x="610" y="940" as="sourcePoint" />
            <mxPoint x="660" y="890" as="targetPoint" />
            <Array as="points">
              <mxPoint x="850" y="1060" />
            </Array>
          </mxGeometry>
        </mxCell>
        <mxCell id="hDT_LqE07yz6vbRcyDex-70" value="CAN1" style="text;html=1;strokeColor=none;fillColor=none;align=center;verticalAlign=middle;whiteSpace=wrap;rounded=0;fontSize=14;" vertex="1" parent="1">
          <mxGeometry x="860" y="1190" width="60" height="20" as="geometry" />
        </mxCell>
        <mxCell id="hDT_LqE07yz6vbRcyDex-71" value="CAN2" style="text;html=1;strokeColor=none;fillColor=none;align=center;verticalAlign=middle;whiteSpace=wrap;rounded=0;fontSize=14;" vertex="1" parent="1">
          <mxGeometry x="1020" y="1190" width="60" height="20" as="geometry" />
        </mxCell>
        <mxCell id="hDT_LqE07yz6vbRcyDex-16" value="" style="endArrow=classic;html=1;rounded=0;exitX=0;exitY=0.5;exitDx=0;exitDy=0;" edge="1" parent="1" source="hDT_LqE07yz6vbRcyDex-3">
          <mxGeometry width="50" height="50" relative="1" as="geometry">
            <mxPoint x="70" y="500" as="sourcePoint" />
            <mxPoint x="80" y="420" as="targetPoint" />
          </mxGeometry>
        </mxCell>
        <mxCell id="hDT_LqE07yz6vbRcyDex-2" value="" style="rounded=0;whiteSpace=wrap;html=1;fontSize=16;fillColor=none;dashed=1;strokeColor=#007FFF;strokeWidth=2;" vertex="1" parent="1">
          <mxGeometry x="200" y="350" width="240" height="780" as="geometry" />
        </mxCell>
        <mxCell id="hDT_LqE07yz6vbRcyDex-3" value="Тумблеры - 5шт&lt;br style=&quot;font-size: 14px;&quot;&gt;&lt;font color=&quot;#67ab9f&quot; style=&quot;font-size: 14px;&quot;&gt;Импеллеры 1-5&lt;/font&gt;" style="rounded=0;whiteSpace=wrap;html=1;fontSize=14;" vertex="1" parent="1">
          <mxGeometry x="240" y="390" width="160" height="60" as="geometry" />
        </mxCell>
        <mxCell id="hDT_LqE07yz6vbRcyDex-4" value="Тумблеры - 5шт&lt;br style=&quot;font-size: 14px;&quot;&gt;&lt;font color=&quot;#67ab9f&quot; style=&quot;font-size: 14px;&quot;&gt;Батареи 1-4&lt;br style=&quot;font-size: 14px;&quot;&gt;Общий минус&lt;/font&gt;" style="rounded=0;whiteSpace=wrap;html=1;fontSize=14;" vertex="1" parent="1">
          <mxGeometry x="240" y="470" width="160" height="60" as="geometry" />
        </mxCell>
        <mxCell id="hDT_LqE07yz6vbRcyDex-5" value="Тумблеры - 2шт&lt;br style=&quot;font-size: 14px;&quot;&gt;&lt;font color=&quot;#67ab9f&quot; style=&quot;font-size: 14px;&quot;&gt;800/24В&lt;br style=&quot;font-size: 14px;&quot;&gt;АПА&lt;/font&gt;" style="rounded=0;whiteSpace=wrap;html=1;fontSize=14;" vertex="1" parent="1">
          <mxGeometry x="240" y="550" width="160" height="60" as="geometry" />
        </mxCell>
        <mxCell id="hDT_LqE07yz6vbRcyDex-6" value="Тумблеры - 1шт&lt;br style=&quot;font-size: 14px;&quot;&gt;&lt;font color=&quot;#67ab9f&quot; style=&quot;font-size: 14px;&quot;&gt;Питание системы&lt;/font&gt;" style="rounded=0;whiteSpace=wrap;html=1;fontSize=14;" vertex="1" parent="1">
          <mxGeometry x="240" y="630" width="160" height="60" as="geometry" />
        </mxCell>
        <mxCell id="hDT_LqE07yz6vbRcyDex-7" value="Энкриментальные энкодеры - 5шт" style="rounded=0;whiteSpace=wrap;html=1;fontSize=14;" vertex="1" parent="1">
          <mxGeometry x="240" y="710" width="160" height="60" as="geometry" />
        </mxCell>
        <mxCell id="hDT_LqE07yz6vbRcyDex-9" value="Кнопка &lt;br&gt;синхронизации - 1шт" style="rounded=0;whiteSpace=wrap;html=1;fontSize=14;" vertex="1" parent="1">
          <mxGeometry x="240" y="790" width="160" height="60" as="geometry" />
        </mxCell>
        <mxCell id="hDT_LqE07yz6vbRcyDex-10" value="&lt;div&gt;Лампы&lt;/div&gt;&lt;div&gt;&lt;font color=&quot;#67ab9f&quot;&gt;Красные - 5 шт&lt;/font&gt;&lt;/div&gt;&lt;div&gt;&lt;font color=&quot;#67ab9f&quot;&gt;Зеленые - 5шт&lt;/font&gt;&lt;/div&gt;" style="rounded=0;whiteSpace=wrap;html=1;fontSize=14;" vertex="1" parent="1">
          <mxGeometry x="240" y="870" width="160" height="60" as="geometry" />
        </mxCell>
        <mxCell id="hDT_LqE07yz6vbRcyDex-11" value="&lt;div&gt;РУД - 1 шт&lt;/div&gt;" style="rounded=0;whiteSpace=wrap;html=1;fontSize=14;" vertex="1" parent="1">
          <mxGeometry x="240" y="1030" width="160" height="60" as="geometry" />
        </mxCell>
        <mxCell id="hDT_LqE07yz6vbRcyDex-12" value="&lt;div&gt;Кнопка остановки - 1шт&lt;/div&gt;" style="rounded=0;whiteSpace=wrap;html=1;fontSize=14;" vertex="1" parent="1">
          <mxGeometry x="240" y="950" width="160" height="60" as="geometry" />
        </mxCell>
        <mxCell id="hDT_LqE07yz6vbRcyDex-17" value="ПУ" style="text;html=1;strokeColor=none;fillColor=none;align=center;verticalAlign=middle;whiteSpace=wrap;rounded=0;fontSize=26;fontColor=#007FFF;" vertex="1" parent="1">
          <mxGeometry x="200" y="310" width="240" height="40" as="geometry" />
        </mxCell>
        <mxCell id="hDT_LqE07yz6vbRcyDex-19" value="" style="endArrow=classic;html=1;rounded=0;exitX=0;exitY=0.5;exitDx=0;exitDy=0;" edge="1" parent="1">
          <mxGeometry width="50" height="50" relative="1" as="geometry">
            <mxPoint x="240" y="500" as="sourcePoint" />
            <mxPoint x="80" y="500" as="targetPoint" />
          </mxGeometry>
        </mxCell>
        <mxCell id="hDT_LqE07yz6vbRcyDex-21" value="" style="endArrow=classic;html=1;rounded=0;exitX=0;exitY=0.5;exitDx=0;exitDy=0;" edge="1" parent="1">
          <mxGeometry width="50" height="50" relative="1" as="geometry">
            <mxPoint x="240" y="580" as="sourcePoint" />
            <mxPoint x="80" y="580" as="targetPoint" />
          </mxGeometry>
        </mxCell>
        <mxCell id="hDT_LqE07yz6vbRcyDex-23" value="" style="endArrow=classic;html=1;rounded=0;exitX=0;exitY=0.5;exitDx=0;exitDy=0;" edge="1" parent="1">
          <mxGeometry width="50" height="50" relative="1" as="geometry">
            <mxPoint x="240" y="660" as="sourcePoint" />
            <mxPoint x="80" y="660" as="targetPoint" />
          </mxGeometry>
        </mxCell>
        <mxCell id="hDT_LqE07yz6vbRcyDex-24" value="К БНН" style="text;html=1;strokeColor=none;fillColor=none;align=center;verticalAlign=middle;whiteSpace=wrap;rounded=0;fontSize=14;" vertex="1" parent="1">
          <mxGeometry x="100" y="640" width="50" height="20" as="geometry" />
        </mxCell>
        <mxCell id="hDT_LqE07yz6vbRcyDex-72" value="Raspberry Pi 4" style="rounded=0;whiteSpace=wrap;html=1;fontSize=18;" vertex="1" parent="1">
          <mxGeometry x="1360" y="610" width="160" height="200" as="geometry" />
        </mxCell>
        <mxCell id="hDT_LqE07yz6vbRcyDex-74" value="DC-DC" style="rounded=0;whiteSpace=wrap;html=1;fontSize=14;" vertex="1" parent="1">
          <mxGeometry x="810" y="350" width="80" height="40" as="geometry" />
        </mxCell>
        <mxCell id="hDT_LqE07yz6vbRcyDex-77" value="DC-DC" style="rounded=0;whiteSpace=wrap;html=1;fontSize=14;" vertex="1" parent="1">
          <mxGeometry x="810" y="430" width="80" height="40" as="geometry" />
        </mxCell>
        <mxCell id="hDT_LqE07yz6vbRcyDex-78" value="" style="endArrow=classic;html=1;rounded=0;entryX=0.5;entryY=0;entryDx=0;entryDy=0;" edge="1" parent="1" target="hDT_LqE07yz6vbRcyDex-74">
          <mxGeometry width="50" height="50" relative="1" as="geometry">
            <mxPoint x="850" y="230" as="sourcePoint" />
            <mxPoint x="830" y="390" as="targetPoint" />
          </mxGeometry>
        </mxCell>
        <mxCell id="hDT_LqE07yz6vbRcyDex-79" value="" style="endArrow=classic;html=1;rounded=0;entryX=0.5;entryY=0;entryDx=0;entryDy=0;exitX=0.5;exitY=1;exitDx=0;exitDy=0;" edge="1" parent="1" source="hDT_LqE07yz6vbRcyDex-74" target="hDT_LqE07yz6vbRcyDex-77">
          <mxGeometry width="50" height="50" relative="1" as="geometry">
            <mxPoint x="990" y="950" as="sourcePoint" />
            <mxPoint x="1040" y="900" as="targetPoint" />
          </mxGeometry>
        </mxCell>
        <mxCell id="hDT_LqE07yz6vbRcyDex-81" value="12В" style="text;html=1;strokeColor=none;fillColor=none;align=center;verticalAlign=middle;whiteSpace=wrap;rounded=0;fontSize=14;" vertex="1" parent="1">
          <mxGeometry x="850" y="320" width="40" height="20" as="geometry" />
        </mxCell>
        <mxCell id="hDT_LqE07yz6vbRcyDex-82" value="5.0В" style="text;html=1;strokeColor=none;fillColor=none;align=center;verticalAlign=middle;whiteSpace=wrap;rounded=0;fontSize=14;" vertex="1" parent="1">
          <mxGeometry x="850" y="400" width="40" height="20" as="geometry" />
        </mxCell>
        <mxCell id="hDT_LqE07yz6vbRcyDex-83" value="3.3В" style="text;html=1;strokeColor=none;fillColor=none;align=center;verticalAlign=middle;whiteSpace=wrap;rounded=0;fontSize=14;" vertex="1" parent="1">
          <mxGeometry x="850" y="480" width="40" height="20" as="geometry" />
        </mxCell>
        <mxCell id="hDT_LqE07yz6vbRcyDex-84" value="" style="endArrow=classic;html=1;rounded=0;exitX=0.5;exitY=1;exitDx=0;exitDy=0;" edge="1" parent="1" source="hDT_LqE07yz6vbRcyDex-77">
          <mxGeometry width="50" height="50" relative="1" as="geometry">
            <mxPoint x="840" y="490" as="sourcePoint" />
            <mxPoint x="850" y="510" as="targetPoint" />
          </mxGeometry>
        </mxCell>
        <mxCell id="hDT_LqE07yz6vbRcyDex-85" value="Оптрон" style="rounded=0;whiteSpace=wrap;html=1;" vertex="1" parent="1">
          <mxGeometry x="1030" y="690" width="80" height="40" as="geometry" />
        </mxCell>
        <mxCell id="hDT_LqE07yz6vbRcyDex-88" value="3.3В" style="text;html=1;strokeColor=none;fillColor=none;align=center;verticalAlign=middle;whiteSpace=wrap;rounded=0;fontSize=14;" vertex="1" parent="1">
          <mxGeometry x="980" y="690" width="40" height="20" as="geometry" />
        </mxCell>
        <mxCell id="hDT_LqE07yz6vbRcyDex-89" value="" style="endArrow=classic;html=1;rounded=0;exitX=1;exitY=0.5;exitDx=0;exitDy=0;entryX=0;entryY=0.5;entryDx=0;entryDy=0;" edge="1" parent="1" source="hDT_LqE07yz6vbRcyDex-85" target="hDT_LqE07yz6vbRcyDex-72">
          <mxGeometry width="50" height="50" relative="1" as="geometry">
            <mxPoint x="1220" y="700" as="sourcePoint" />
            <mxPoint x="1310" y="710" as="targetPoint" />
          </mxGeometry>
        </mxCell>
        <mxCell id="hDT_LqE07yz6vbRcyDex-90" value="3.3В" style="text;html=1;strokeColor=none;fillColor=none;align=center;verticalAlign=middle;whiteSpace=wrap;rounded=0;fontSize=14;" vertex="1" parent="1">
          <mxGeometry x="1300" y="690" width="40" height="20" as="geometry" />
        </mxCell>
        <mxCell id="hDT_LqE07yz6vbRcyDex-91" value="UART" style="text;html=1;strokeColor=none;fillColor=none;align=center;verticalAlign=middle;whiteSpace=wrap;rounded=0;fontSize=14;" vertex="1" parent="1">
          <mxGeometry x="980" y="710" width="40" height="20" as="geometry" />
        </mxCell>
        <mxCell id="hDT_LqE07yz6vbRcyDex-92" value="UART" style="text;html=1;strokeColor=none;fillColor=none;align=center;verticalAlign=middle;whiteSpace=wrap;rounded=0;fontSize=14;" vertex="1" parent="1">
          <mxGeometry x="1300" y="710" width="40" height="20" as="geometry" />
        </mxCell>
        <mxCell id="hDT_LqE07yz6vbRcyDex-99" value="КВ" style="text;html=1;strokeColor=none;fillColor=none;align=center;verticalAlign=middle;whiteSpace=wrap;rounded=0;fontSize=24;fontColor=#007FFF;fontStyle=0" vertex="1" parent="1">
          <mxGeometry x="1220" y="510" width="220" height="40" as="geometry" />
        </mxCell>
        <mxCell id="hDT_LqE07yz6vbRcyDex-108" value="HDMI" style="text;html=1;strokeColor=none;fillColor=none;align=center;verticalAlign=middle;whiteSpace=wrap;rounded=0;fontSize=14;" vertex="1" parent="1">
          <mxGeometry x="1440" y="580" width="60" height="20" as="geometry" />
        </mxCell>
        <mxCell id="hDT_LqE07yz6vbRcyDex-110" value="DC-DC" style="rounded=0;whiteSpace=wrap;html=1;fontSize=14;" vertex="1" parent="1">
          <mxGeometry x="1540" y="590" width="80" height="40" as="geometry" />
        </mxCell>
        <mxCell id="hDT_LqE07yz6vbRcyDex-112" value="" style="endArrow=classic;html=1;rounded=0;fontFamily=Helvetica;fontSize=14;fontColor=default;entryX=0.5;entryY=0;entryDx=0;entryDy=0;" edge="1" parent="1" target="hDT_LqE07yz6vbRcyDex-110">
          <mxGeometry width="50" height="50" relative="1" as="geometry">
            <mxPoint x="1580" y="510" as="sourcePoint" />
            <mxPoint x="1590" y="600" as="targetPoint" />
          </mxGeometry>
        </mxCell>
        <mxCell id="hDT_LqE07yz6vbRcyDex-114" value="" style="endArrow=classic;html=1;rounded=0;fontFamily=Helvetica;fontSize=14;fontColor=default;" edge="1" parent="1">
          <mxGeometry width="50" height="50" relative="1" as="geometry">
            <mxPoint x="1579.71" y="630" as="sourcePoint" />
            <mxPoint x="1520" y="670" as="targetPoint" />
            <Array as="points">
              <mxPoint x="1580" y="670" />
            </Array>
          </mxGeometry>
        </mxCell>
        <mxCell id="hDT_LqE07yz6vbRcyDex-116" value="5.0В" style="text;html=1;strokeColor=none;fillColor=none;align=center;verticalAlign=middle;whiteSpace=wrap;rounded=0;fontSize=14;" vertex="1" parent="1">
          <mxGeometry x="1540" y="640" width="40" height="20" as="geometry" />
        </mxCell>
        <mxCell id="hDT_LqE07yz6vbRcyDex-118" value="24В?" style="text;html=1;strokeColor=none;fillColor=none;align=center;verticalAlign=middle;whiteSpace=wrap;rounded=0;fontSize=14;" vertex="1" parent="1">
          <mxGeometry x="1540" y="560" width="40" height="20" as="geometry" />
        </mxCell>
        <mxCell id="hDT_LqE07yz6vbRcyDex-122" value="К БНН" style="text;html=1;strokeColor=none;fillColor=none;align=center;verticalAlign=middle;whiteSpace=wrap;rounded=0;fontSize=14;" vertex="1" parent="1">
          <mxGeometry x="100" y="560" width="50" height="20" as="geometry" />
        </mxCell>
        <mxCell id="hDT_LqE07yz6vbRcyDex-123" value="К РУ1" style="text;html=1;strokeColor=none;fillColor=none;align=center;verticalAlign=middle;whiteSpace=wrap;rounded=0;fontSize=14;" vertex="1" parent="1">
          <mxGeometry x="100" y="480" width="50" height="20" as="geometry" />
        </mxCell>
        <mxCell id="hDT_LqE07yz6vbRcyDex-124" value="К РУ2" style="text;html=1;strokeColor=none;fillColor=none;align=center;verticalAlign=middle;whiteSpace=wrap;rounded=0;fontSize=14;" vertex="1" parent="1">
          <mxGeometry x="100" y="400" width="50" height="20" as="geometry" />
        </mxCell>
        <mxCell id="hDT_LqE07yz6vbRcyDex-129" value="Кнопка остановки - 1шт" style="rounded=0;whiteSpace=wrap;html=1;fontSize=14;" vertex="1" parent="1">
          <mxGeometry x="1920" y="860" width="160" height="60" as="geometry" />
        </mxCell>
        <mxCell id="hDT_LqE07yz6vbRcyDex-143" value="" style="endArrow=classic;html=1;rounded=0;fontFamily=Helvetica;fontSize=14;fontColor=default;exitX=0;exitY=0.5;exitDx=0;exitDy=0;" edge="1" parent="1" source="hDT_LqE07yz6vbRcyDex-85">
          <mxGeometry width="50" height="50" relative="1" as="geometry">
            <mxPoint x="1070" y="740" as="sourcePoint" />
            <mxPoint x="950" y="710" as="targetPoint" />
          </mxGeometry>
        </mxCell>
        <mxCell id="hDT_LqE07yz6vbRcyDex-145" value="Оптрон" style="rounded=0;whiteSpace=wrap;html=1;" vertex="1" parent="1">
          <mxGeometry x="1030" y="870" width="80" height="40" as="geometry" />
        </mxCell>
        <mxCell id="hDT_LqE07yz6vbRcyDex-146" value="" style="endArrow=classic;html=1;rounded=0;fontFamily=Helvetica;fontSize=14;fontColor=default;exitX=0;exitY=0.5;exitDx=0;exitDy=0;" edge="1" parent="1" source="hDT_LqE07yz6vbRcyDex-145">
          <mxGeometry width="50" height="50" relative="1" as="geometry">
            <mxPoint x="1070" y="920" as="sourcePoint" />
            <mxPoint x="950" y="890" as="targetPoint" />
          </mxGeometry>
        </mxCell>
        <mxCell id="hDT_LqE07yz6vbRcyDex-147" value="3.3В" style="text;html=1;strokeColor=none;fillColor=none;align=center;verticalAlign=middle;whiteSpace=wrap;rounded=0;fontSize=14;" vertex="1" parent="1">
          <mxGeometry x="980" y="870" width="40" height="20" as="geometry" />
        </mxCell>
        <mxCell id="hDT_LqE07yz6vbRcyDex-148" value="Raspberry Pi 4" style="rounded=0;whiteSpace=wrap;html=1;fontSize=18;" vertex="1" parent="1">
          <mxGeometry x="1920" y="610" width="160" height="200" as="geometry" />
        </mxCell>
        <mxCell id="hDT_LqE07yz6vbRcyDex-152" value="&lt;span style=&quot;font-size: 24px;&quot;&gt;Кабина пилота&lt;/span&gt;" style="text;html=1;strokeColor=none;fillColor=none;align=center;verticalAlign=middle;whiteSpace=wrap;rounded=0;fontSize=24;fontColor=#007FFF;fontStyle=0" vertex="1" parent="1">
          <mxGeometry x="1760" y="310" width="170" height="40" as="geometry" />
        </mxCell>
        <mxCell id="hDT_LqE07yz6vbRcyDex-153" value="DC-DC" style="rounded=0;whiteSpace=wrap;html=1;fontSize=14;" vertex="1" parent="1">
          <mxGeometry x="2100" y="590" width="80" height="40" as="geometry" />
        </mxCell>
        <mxCell id="hDT_LqE07yz6vbRcyDex-154" value="" style="endArrow=classic;html=1;rounded=0;fontFamily=Helvetica;fontSize=14;fontColor=default;entryX=0.5;entryY=0;entryDx=0;entryDy=0;" edge="1" parent="1" target="hDT_LqE07yz6vbRcyDex-153">
          <mxGeometry width="50" height="50" relative="1" as="geometry">
            <mxPoint x="2140" y="510" as="sourcePoint" />
            <mxPoint x="2150" y="600" as="targetPoint" />
          </mxGeometry>
        </mxCell>
        <mxCell id="hDT_LqE07yz6vbRcyDex-155" value="" style="endArrow=classic;html=1;rounded=0;fontFamily=Helvetica;fontSize=14;fontColor=default;" edge="1" parent="1">
          <mxGeometry width="50" height="50" relative="1" as="geometry">
            <mxPoint x="2139.71" y="630" as="sourcePoint" />
            <mxPoint x="2080" y="670" as="targetPoint" />
            <Array as="points">
              <mxPoint x="2140" y="670" />
            </Array>
          </mxGeometry>
        </mxCell>
        <mxCell id="hDT_LqE07yz6vbRcyDex-156" value="5.0В" style="text;html=1;strokeColor=none;fillColor=none;align=center;verticalAlign=middle;whiteSpace=wrap;rounded=0;fontSize=14;" vertex="1" parent="1">
          <mxGeometry x="2100" y="640" width="40" height="20" as="geometry" />
        </mxCell>
        <mxCell id="hDT_LqE07yz6vbRcyDex-157" value="24В?" style="text;html=1;strokeColor=none;fillColor=none;align=center;verticalAlign=middle;whiteSpace=wrap;rounded=0;fontSize=14;" vertex="1" parent="1">
          <mxGeometry x="2100" y="560" width="40" height="20" as="geometry" />
        </mxCell>
        <mxCell id="hDT_LqE07yz6vbRcyDex-158" value="" style="endArrow=classic;startArrow=classic;html=1;rounded=0;fontFamily=Helvetica;fontSize=14;fontColor=default;exitX=1;exitY=0.5;exitDx=0;exitDy=0;entryX=0;entryY=0.5;entryDx=0;entryDy=0;" edge="1" parent="1" source="hDT_LqE07yz6vbRcyDex-72" target="hDT_LqE07yz6vbRcyDex-148">
          <mxGeometry width="50" height="50" relative="1" as="geometry">
            <mxPoint x="1660" y="710" as="sourcePoint" />
            <mxPoint x="1710" y="660" as="targetPoint" />
          </mxGeometry>
        </mxCell>
        <mxCell id="hDT_LqE07yz6vbRcyDex-159" value="Ethernet" style="text;html=1;strokeColor=none;fillColor=none;align=center;verticalAlign=middle;whiteSpace=wrap;rounded=0;fontSize=14;" vertex="1" parent="1">
          <mxGeometry x="1540" y="710" width="60" height="20" as="geometry" />
        </mxCell>
        <mxCell id="hDT_LqE07yz6vbRcyDex-160" value="Ethernet" style="text;html=1;strokeColor=none;fillColor=none;align=center;verticalAlign=middle;whiteSpace=wrap;rounded=0;fontSize=14;" vertex="1" parent="1">
          <mxGeometry x="1850" y="710" width="60" height="20" as="geometry" />
        </mxCell>
        <mxCell id="hDT_LqE07yz6vbRcyDex-161" value="" style="endArrow=none;html=1;rounded=0;fontFamily=Helvetica;fontSize=14;fontColor=default;exitX=1;exitY=0.5;exitDx=0;exitDy=0;entryX=0;entryY=0.5;entryDx=0;entryDy=0;" edge="1" parent="1" source="hDT_LqE07yz6vbRcyDex-145" target="hDT_LqE07yz6vbRcyDex-129">
          <mxGeometry width="50" height="50" relative="1" as="geometry">
            <mxPoint x="1430" y="810" as="sourcePoint" />
            <mxPoint x="1480" y="760" as="targetPoint" />
          </mxGeometry>
        </mxCell>
        <mxCell id="hDT_LqE07yz6vbRcyDex-163" value="HDMI" style="text;html=1;strokeColor=none;fillColor=none;align=center;verticalAlign=middle;whiteSpace=wrap;rounded=0;fontSize=14;" vertex="1" parent="1">
          <mxGeometry x="2000" y="580" width="60" height="20" as="geometry" />
        </mxCell>
        <mxCell id="hDT_LqE07yz6vbRcyDex-167" value="БУ" style="text;html=1;strokeColor=none;fillColor=none;align=center;verticalAlign=middle;whiteSpace=wrap;rounded=0;fontSize=32;fontColor=#97D077;fontStyle=0" vertex="1" parent="1">
          <mxGeometry x="1560" y="230" width="80" height="40" as="geometry" />
        </mxCell>
        <mxCell id="hDT_LqE07yz6vbRcyDex-169" value="Монитор кабины пилота" style="rounded=0;whiteSpace=wrap;html=1;fontSize=14;" vertex="1" parent="1">
          <mxGeometry x="1370" y="390" width="140" height="60" as="geometry" />
        </mxCell>
        <mxCell id="hDT_LqE07yz6vbRcyDex-170" value="Монитор главного пульта" style="rounded=0;whiteSpace=wrap;html=1;fontSize=14;" vertex="1" parent="1">
          <mxGeometry x="1930" y="390" width="140" height="60" as="geometry" />
        </mxCell>
        <mxCell id="hDT_LqE07yz6vbRcyDex-171" value="" style="endArrow=classic;html=1;rounded=0;fontFamily=Helvetica;fontSize=14;fontColor=default;entryX=0.5;entryY=1;entryDx=0;entryDy=0;exitX=0.5;exitY=0;exitDx=0;exitDy=0;" edge="1" parent="1" source="hDT_LqE07yz6vbRcyDex-148" target="hDT_LqE07yz6vbRcyDex-170">
          <mxGeometry width="50" height="50" relative="1" as="geometry">
            <mxPoint x="1690" y="580" as="sourcePoint" />
            <mxPoint x="1740" y="530" as="targetPoint" />
          </mxGeometry>
        </mxCell>
        <mxCell id="hDT_LqE07yz6vbRcyDex-173" value="" style="endArrow=classic;html=1;rounded=0;fontFamily=Helvetica;fontSize=14;fontColor=default;exitX=0.5;exitY=0;exitDx=0;exitDy=0;entryX=0.5;entryY=1;entryDx=0;entryDy=0;" edge="1" parent="1" source="hDT_LqE07yz6vbRcyDex-72" target="hDT_LqE07yz6vbRcyDex-169">
          <mxGeometry width="50" height="50" relative="1" as="geometry">
            <mxPoint x="1690" y="580" as="sourcePoint" />
            <mxPoint x="1740" y="530" as="targetPoint" />
          </mxGeometry>
        </mxCell>
        <mxCell id="hDT_LqE07yz6vbRcyDex-174" value="5.0В" style="text;html=1;strokeColor=none;fillColor=none;align=center;verticalAlign=middle;whiteSpace=wrap;rounded=0;fontSize=14;" vertex="1" parent="1">
          <mxGeometry x="1110" y="870" width="40" height="20" as="geometry" />
        </mxCell>
        <mxCell id="hDT_LqE07yz6vbRcyDex-175" value="CAN трансивер" style="rounded=0;whiteSpace=wrap;html=1;" vertex="1" parent="1">
          <mxGeometry x="880" y="1030" width="80" height="40" as="geometry" />
        </mxCell>
        <mxCell id="hDT_LqE07yz6vbRcyDex-176" value="CAN трансивер" style="rounded=0;whiteSpace=wrap;html=1;" vertex="1" parent="1">
          <mxGeometry x="980" y="1030" width="80" height="40" as="geometry" />
        </mxCell>
        <mxCell id="hDT_LqE07yz6vbRcyDex-177" value="" style="endArrow=classic;startArrow=classic;html=1;rounded=0;fontFamily=Helvetica;fontSize=14;fontColor=default;exitX=0.5;exitY=0;exitDx=0;exitDy=0;" edge="1" parent="1" source="hDT_LqE07yz6vbRcyDex-175">
          <mxGeometry width="50" height="50" relative="1" as="geometry">
            <mxPoint x="880" y="1060" as="sourcePoint" />
            <mxPoint x="920" y="950" as="targetPoint" />
          </mxGeometry>
        </mxCell>
        <mxCell id="hDT_LqE07yz6vbRcyDex-178" value="" style="endArrow=classic;startArrow=classic;html=1;rounded=0;fontFamily=Helvetica;fontSize=14;fontColor=default;entryX=0.5;entryY=1;entryDx=0;entryDy=0;" edge="1" parent="1" target="hDT_LqE07yz6vbRcyDex-175">
          <mxGeometry width="50" height="50" relative="1" as="geometry">
            <mxPoint x="920" y="1230" as="sourcePoint" />
            <mxPoint x="980" y="1200" as="targetPoint" />
          </mxGeometry>
        </mxCell>
        <mxCell id="hDT_LqE07yz6vbRcyDex-179" value="" style="endArrow=classic;startArrow=classic;html=1;rounded=0;fontFamily=Helvetica;fontSize=14;fontColor=default;entryX=0.5;entryY=1;entryDx=0;entryDy=0;" edge="1" parent="1" target="hDT_LqE07yz6vbRcyDex-176">
          <mxGeometry width="50" height="50" relative="1" as="geometry">
            <mxPoint x="1020" y="1230" as="sourcePoint" />
            <mxPoint x="990" y="1040" as="targetPoint" />
          </mxGeometry>
        </mxCell>
        <mxCell id="hDT_LqE07yz6vbRcyDex-181" value="" style="endArrow=classic;startArrow=classic;html=1;rounded=0;fontFamily=Helvetica;fontSize=14;fontColor=default;entryX=0.5;entryY=0;entryDx=0;entryDy=0;" edge="1" parent="1" target="hDT_LqE07yz6vbRcyDex-176">
          <mxGeometry width="50" height="50" relative="1" as="geometry">
            <mxPoint x="950" y="930" as="sourcePoint" />
            <mxPoint x="930" y="960" as="targetPoint" />
            <Array as="points">
              <mxPoint x="1020" y="930" />
            </Array>
          </mxGeometry>
        </mxCell>
        <mxCell id="hDT_LqE07yz6vbRcyDex-183" value="" style="endArrow=classic;startArrow=classic;html=1;rounded=0;fontFamily=Helvetica;fontSize=14;fontColor=default;" edge="1" parent="1">
          <mxGeometry width="50" height="50" relative="1" as="geometry">
            <mxPoint x="950" y="600" as="sourcePoint" />
            <mxPoint x="1110" y="600" as="targetPoint" />
          </mxGeometry>
        </mxCell>
        <mxCell id="hDT_LqE07yz6vbRcyDex-184" value="SWD" style="text;html=1;strokeColor=none;fillColor=none;align=center;verticalAlign=middle;whiteSpace=wrap;rounded=0;fontSize=14;" vertex="1" parent="1">
          <mxGeometry x="1050" y="600" width="40" height="20" as="geometry" />
        </mxCell>
      </root>
    </mxGraphModel>
  </diagram>
</mxfile>
